<?xml version="1.0" encoding="utf-8"?>
<!-- Generator: Adobe Illustrator 19.2.1, SVG Export Plug-In . SVG Version: 6.00 Build 0)  -->
<svg version="1.1" id="Layer_1" xmlns="http://www.w3.org/2000/svg" xmlns:xlink="http://www.w3.org/1999/xlink" x="0px" y="0px"
	 viewBox="-3098 1645.2 48.1 86.7" enable-background="new -3098 1645.2 48.1 86.7" xml:space="preserve">
<path d="M-3081.8,1731.9c-0.3,0-0.6,0-0.9-0.2c-1.4-0.5-2.2-1.8-2-3.2l4.7-34.1h-15c-0.8,0-1.7-0.4-2.2-1c-0.6-0.6-0.8-1.5-0.7-2.3
	l4.7-43.2c0.2-1.5,1.4-2.7,3-2.7h29.6c1,0,1.9,0.5,2.4,1.3c0.6,0.8,0.7,1.8,0.4,2.7l-8.5,23.8l2.5-0.1l10.8-0.6
	c1.1-0.1,2.1,0.5,2.7,1.4s0.6,2.1,0.1,3l-14.4,27.6l-14.5,26.1C-3079.7,1731.3-3080.8,1731.9-3081.8,1731.9z M-3091.7,1688.4h15.1
	c0.9,0,1.7,0.4,2.3,1c0.6,0.7,0.8,1.5,0.7,2.4l-3,21.6l6.6-12l11.9-22.8l-5.5,0.3l-7,0.3c-1,0.1-1.9-0.4-2.5-1.2
	c-0.6-0.8-0.7-1.8-0.4-2.8l8.6-24.1h-22.7L-3091.7,1688.4z"/>
</svg>
