<?xml version="1.0" encoding="utf-8"?>
<!-- Generator: Adobe Illustrator 19.2.1, SVG Export Plug-In . SVG Version: 6.00 Build 0)  -->
<svg version="1.1" id="Layer_1" xmlns="http://www.w3.org/2000/svg" xmlns:xlink="http://www.w3.org/1999/xlink" x="0px" y="0px"
	 viewBox="-3119 1643.6 90 90" enable-background="new -3119 1643.6 90 90" xml:space="preserve">
<path d="M-3074.4,1643.6c-1.2,0-2.5,0.1-3.8,0.3c-0.7,0.1-1.4,0.3-2.1,0.4c-2.1,0.5-3.5,2.3-3.6,4.4c0,0.1,0,0.4,0,0.7
	c0,1.3,0,3.7,0,3.8v0c0,0,0,0,0,0c0,0.2-0.2,0.3-0.3,0.3c-0.1,0-0.1,0.1-0.2,0.1c-2.6,0.8-5,1.7-7.3,3c-0.1,0.1-0.3,0.1-0.5,0
	c0,0,0,0,0,0v0l-2.7-2.7c-0.1-0.1-0.2-0.2-0.4-0.4c-1.5-1.5-3.8-1.7-5.6-0.6c-1.7,1-3.3,2.3-4.8,3.7h0c0,0,0,0-0.1,0.1v0
	c0,0,0,0,0,0c-0.1,0.1-0.2,0.2-0.3,0.3c0,0,0,0,0,0c-0.9,0.9-1.7,1.8-2.4,2.9c-0.4,0.6-0.8,1.2-1.2,1.8c-1.1,1.8-0.9,4.1,0.6,5.7
	c0.1,0.1,0.3,0.3,0.5,0.5c1,0.9,2.6,2.6,2.6,2.7c0.1,0.1,0,0,0,0c0,0,0.1,0,0,0c0.1,0.1,0.1,0.3,0,0.5c0,0.1,0,0.1-0.1,0.2
	c0,0,0,0,0,0c-1.3,2.3-2.3,4.8-3,7.3c-0.1,0.2-0.2,0.3-0.4,0.3h-3.8c-0.1,0-0.3,0-0.6,0c-2.1,0.1-3.9,1.5-4.4,3.6
	c-0.5,2-0.8,4-0.8,6.1v0v0.5c0,0,0,0,0,0c0,1.2,0.1,2.5,0.3,3.8c0.1,0.7,0.3,1.4,0.4,2.1c0.5,2.1,2.3,3.5,4.4,3.6c0.1,0,0.4,0,0.7,0
	c1.3,0,3.7,0,3.8,0h0c0,0,0,0,0,0c0.2,0,0.3,0.2,0.3,0.3c0,0.1,0.1,0.2,0.1,0.2c0.7,2.5,1.7,4.9,2.9,7.1c0,0.1,0.1,0.1,0.1,0.2
	c0.1,0.2,0.1,0.3,0,0.5c0,0,0,0,0,0c0,0,0,0,0,0l-2.7,2.7c-0.1,0.1-0.2,0.2-0.4,0.4c-1.5,1.5-1.7,3.8-0.6,5.6c1,1.7,2.2,3.3,3.7,4.8
	c0,0,0,0,0,0c0,0,0.1,0.1,0.1,0.1c0,0,0.1,0.1,0.1,0.1c0.1,0.1,0.2,0.2,0.3,0.3c0.9,0.9,1.8,1.7,2.9,2.5c0.6,0.4,1.2,0.8,1.8,1.2
	c1.8,1.1,4.1,0.9,5.7-0.6c0.1-0.1,0.2-0.2,0.4-0.4h0l2.7-2.7l0,0c0.1-0.1,0.3-0.1,0.5,0c2.4,1.3,4.9,2.3,7.5,3.1c0,0,0,0,0,0
	c0.2,0.1,0.3,0.2,0.3,0.3c0,0,0,0,0,0c0,0,0,0,0,0v3.8c0,0.1,0,0.3,0,0.6c0.1,2.1,1.5,3.9,3.5,4.4c2,0.5,4,0.8,6.1,0.8h0h0.5
	c0,0,0,0,0,0c1.2,0,2.5-0.1,3.8-0.3c0.7-0.1,1.4-0.3,2.1-0.4c2.1-0.5,3.5-2.3,3.6-4.4c0-0.1,0-0.4,0-0.7c0-1.4,0-3.8,0-3.8
	c0,0,0-0.1,0,0c0-0.2,0.1-0.3,0.3-0.3c0.1,0,0.1-0.1,0.2-0.1c2.5-0.8,5-1.8,7.3-3c0.1-0.1,0.3-0.1,0.5,0c0,0,0,0,0,0l2.7,2.7
	c0.1,0.1,0.2,0.2,0.4,0.4c1.5,1.5,3.8,1.7,5.6,0.6c1.7-1,3.4-2.3,4.9-3.8c0,0,0,0,0,0c0,0,0,0,0,0c0,0,0,0,0,0c0,0,0,0,0.1-0.1
	c0.1-0.1,0.2-0.2,0.3-0.3c0,0,0,0,0,0c0.9-0.9,1.7-1.8,2.4-2.9c0.4-0.6,0.8-1.2,1.2-1.8c1.1-1.8,0.9-4.1-0.6-5.7
	c-0.1-0.1-0.2-0.3-0.4-0.5c-1-1-2.6-2.6-2.7-2.7c0,0,0,0,0,0c-0.1-0.1-0.1-0.3,0-0.5c0-0.1,0.1-0.1,0.1-0.2c1.2-2.2,2.2-4.6,2.9-7.1
	c0-0.1,0.1-0.1,0.1-0.2c0-0.2,0.2-0.3,0.3-0.3h0h3.8c0.1,0,0.3,0,0.6,0c2.1-0.1,3.9-1.5,4.4-3.5c0.5-2,0.8-4,0.8-6.1c0,0,0,0,0,0v0
	v-0.5c0,0,0,0,0,0c0-1.2-0.1-2.5-0.3-3.8c-0.1-0.7-0.3-1.4-0.4-2.1c-0.5-2.1-2.3-3.5-4.4-3.6c-0.1,0-0.4,0-0.7,0c-1.3,0-3.7,0-3.8,0
	h0c0,0,0,0,0,0c-0.2,0-0.3-0.2-0.3-0.3c-0.7-2.6-1.8-5-3-7.3c0,0,0,0,0,0c0-0.1,0-0.1-0.1-0.2c-0.1-0.1-0.1-0.3,0-0.5c0,0,0,0,0,0
	c0,0,0,0,0,0l2.7-2.7c0.1-0.1,0.2-0.2,0.4-0.4c1.5-1.5,1.7-3.8,0.6-5.6c-1-1.7-2.3-3.4-3.8-4.9c0,0,0,0,0,0v0
	c-0.1-0.1-0.3-0.2-0.4-0.3c0,0,0,0,0,0c-0.9-0.9-1.8-1.7-2.9-2.4c-0.6-0.4-1.2-0.8-1.8-1.2c-1.8-1.1-4.1-0.9-5.7,0.6
	c-0.1,0.1-0.3,0.2-0.5,0.4c-0.6,0.6-2.6,2.6-2.7,2.7c0,0,0,0,0,0c-0.1,0.1-0.3,0.1-0.5,0c-0.1,0-0.1-0.1-0.2-0.1
	c-2.3-1.2-4.7-2.3-7.3-3c-0.2,0-0.3-0.2-0.3-0.3c0,0,0,0,0,0v0v-3.8c0-0.1,0-0.3,0-0.6c-0.1-2.1-1.5-3.9-3.5-4.4
	c-2-0.5-4.1-0.8-6.1-0.8h0H-3074.4C-3074.4,1643.6-3074.4,1643.6-3074.4,1643.6z M-3074.3,1647.1h0.5h0c1.8,0,3.5,0.3,5.3,0.7
	c0.4,0.1,0.9,0.7,0.9,1.1c0,0,0,0,0,0c0,0.1,0,0.3,0,0.5v3.8c0,0,0,0,0,0c0,0.1,0,0.2,0,0.4c0.2,1.6,1.3,2.9,2.8,3.3c0,0,0,0,0,0
	c2.6,0.7,5,1.8,7.3,3.1c0.4,0.2,1,0.3,1.4,0.1c0.8,0,1.6-0.3,2.3-0.8c0.2-0.2,0.3-0.2,0.3-0.3c0,0,0,0,0,0c0,0,2.1-2.1,2.7-2.7
	c0,0,0,0,0,0c0.1-0.1,0.3-0.2,0.4-0.3c0,0,0,0,0,0c0.3-0.3,1.1-0.3,1.4-0.1c0.5,0.3,1,0.7,1.5,1c0.9,0.7,1.7,1.3,2.5,2.1
	c0,0,0,0,0,0c0.1,0.1,0.2,0.2,0.3,0.3h0c1.3,1.3,2.3,2.7,3.2,4.2c0.2,0.4,0.2,1.1-0.1,1.4c-0.1,0.1-0.2,0.2-0.3,0.3l-2.7,2.7
	c0,0,0,0,0,0c0,0-0.1,0.1-0.3,0.3c-0.7,0.9-0.9,1.9-0.8,2.9c0,0.4,0,0.7,0.2,1c0,0,0,0,0,0c0,0,0,0,0,0c1.3,2.2,2.3,4.6,3,7.1
	c0.4,1.5,1.7,2.6,3.3,2.8c0.2,0,0.3,0,0.4,0c0,0,0,0,0.1,0c0,0,2.4,0,3.8,0h0c0.2,0,0.3,0,0.5,0h0c0.4,0,1,0.5,1.1,0.9
	c0.1,0.6,0.3,1.2,0.4,1.8c0.2,1.1,0.3,2.2,0.3,3.3v0.5v0c0,1.8-0.3,3.5-0.7,5.3c-0.1,0.4-0.7,0.9-1.1,0.9h0c-0.2,0-0.3,0-0.5,0h-3.8
	c-0.1,0-0.3,0-0.4,0c-1,0.1-1.8,0.6-2.4,1.3c-0.4,0.2-0.6,0.6-0.8,1c0,0,0,0.1,0,0.1c-0.7,2.6-1.8,5.1-3.1,7.4c0,0,0,0,0,0.1
	c0,0,0,0,0,0c-0.2,0.3-0.2,0.6-0.2,0.9c-0.2,1.1,0.1,2.2,0.8,3.1c0.1,0.1,0.2,0.2,0.3,0.3c0,0,0,0,0,0c0,0,1.7,1.7,2.7,2.7
	c0.1,0.1,0.2,0.3,0.3,0.4c0.3,0.3,0.4,1.1,0.2,1.4c-0.3,0.5-0.7,1-1,1.5c-0.7,0.9-1.3,1.7-2.1,2.5c0,0,0,0,0,0
	c-0.1,0.1-0.2,0.2-0.3,0.3h0v0c0,0,0,0,0,0c-1.3,1.2-2.7,2.3-4.2,3.2c-0.4,0.2-1.1,0.1-1.4-0.2c-0.1-0.1-0.2-0.2-0.3-0.3l-2.7-2.7
	c0,0,0,0,0,0c-0.1-0.1-0.1-0.1-0.3-0.3c-1.3-1-3-1.1-4.3-0.4c-2.3,1.2-4.7,2.2-7.3,2.9c-0.4,0.1-0.8,0.4-1,0.8
	c-0.7,0.6-1.2,1.4-1.3,2.4c0,0.2,0,0.3,0,0.4c0,0,0,0,0,0.1c0,0,0,2.4,0,3.8c0,0,0,0,0,0c0,0.2,0,0.3,0,0.5c0,0,0,0,0,0
	c0,0.4-0.5,1-0.9,1.1c-0.6,0.1-1.2,0.2-1.8,0.3c-1.1,0.2-2.2,0.3-3.3,0.3h-0.5h0c-1.8,0-3.5-0.3-5.3-0.7c-0.4-0.1-0.9-0.7-0.9-1.1
	c0-0.1,0-0.3,0-0.5v-3.8c0,0,0,0,0,0c0-0.1,0-0.2,0-0.4c-0.2-1.6-1.4-2.9-2.8-3.3c-2.4-0.7-4.6-1.6-6.8-2.8c-1.3-0.7-3-0.6-4.3,0.4
	c0,0,0,0,0,0c-0.1,0.1-0.2,0.2-0.3,0.3c0,0,0,0,0,0l-2.7,2.7c-0.1,0.1-0.3,0.2-0.4,0.3c-0.3,0.3-1,0.4-1.4,0.2c-0.5-0.3-1-0.7-1.5-1
	c0,0,0,0,0,0c-0.9-0.7-1.7-1.3-2.5-2.1v0c-0.1-0.1-0.2-0.2-0.3-0.3c0,0,0,0,0,0c-1.3-1.3-2.3-2.7-3.3-4.2c-0.2-0.4-0.1-1.1,0.2-1.4
	c0.1-0.1,0.2-0.2,0.3-0.3l2.7-2.7c0,0,0,0,0,0c0.1-0.1,0.1-0.2,0.3-0.3c0.8-1,1-2.3,0.7-3.5c0-0.2-0.1-0.5-0.2-0.7c0,0,0,0,0,0
	c-1.2-2.2-2.2-4.5-2.9-6.9c0-0.1,0,0,0,0c0-0.1-0.1-0.2,0,0c0,0,0,0,0,0c-0.4-1.4-1.7-2.6-3.3-2.8c-0.2,0-0.3,0-0.4,0c0,0,0,0,0,0
	c0,0-2.4,0-3.8,0h0c-0.2,0-0.4,0-0.5,0c-0.4,0-1-0.5-1.1-0.9c-0.1-0.6-0.2-1.2-0.3-1.8c-0.2-1.1-0.3-2.2-0.3-3.3v-0.5v0
	c0-1.8,0.3-3.5,0.7-5.3c0.1-0.4,0.7-0.9,1.1-0.9c0.2,0,0.3,0,0.5,0h3.8c0.1,0,0.3,0,0.4,0c1.6-0.2,2.8-1.3,3.3-2.8c0,0,0,0,0,0
	c0.7-2.5,1.8-5,3.1-7.3c0,0,0,0,0,0c0.2-0.4,0.3-0.8,0.2-1.2c0.1-0.9-0.2-1.9-0.8-2.7c-0.2-0.2-0.2-0.3-0.3-0.3c0,0,0,0,0,0
	c0,0-1.7-1.7-2.7-2.7c-0.2-0.2-0.3-0.3-0.4-0.4c-0.3-0.3-0.3-1.1-0.1-1.4c0.3-0.5,0.7-1,1-1.5c0.7-0.9,1.3-1.7,2.1-2.5c0,0,0,0,0,0
	c0.1-0.1,0.2-0.2,0.3-0.3c0,0,0,0,0.1,0v0c0,0,0,0,0,0c1.3-1.3,2.7-2.3,4.2-3.3c0.4-0.2,1.1-0.1,1.4,0.2c0.1,0.1,0.2,0.2,0.3,0.3
	l2.7,2.7c0,0,0,0,0,0c0.1,0.1,0.1,0.1,0.3,0.3c1.3,1,3,1.1,4.3,0.4c2.2-1.2,4.5-2.2,7-2.9c0,0,0,0,0,0c0.2-0.1,0.5-0.2,0.7-0.3
	c1-0.6,1.8-1.6,1.9-2.9c0-0.2,0-0.3,0-0.4c0,0,0,0,0,0c0,0,0-2.4,0-3.8c0,0,0,0,0,0c0-0.2,0-0.3,0-0.5c0-0.4,0.5-1,0.9-1.1
	c0.6-0.1,1.2-0.3,1.8-0.4C-3076.5,1647.2-3075.4,1647.1-3074.3,1647.1z M-3074.4,1664.2c-0.8,0-1.6,0.1-2.5,0.2
	c-13.4,1.6-23,13.8-21.4,27.1c1.6,13.4,13.8,23,27.1,21.4c0,0,0,0,0.1,0l1.7-0.3c0,0,0,0,0.1,0c12.5-2.4,21.1-14.1,19.6-26.8
	C-3051.2,1673.2-3062,1664-3074.4,1664.2z M-3074.3,1667.7c10.6-0.2,19.8,7.7,21.1,18.5c1.3,10.9-6,20.9-16.8,23l-1.6,0.3
	c-11.5,1.4-21.8-6.8-23.2-18.3c-1.4-11.5,6.8-21.9,18.3-23.2C-3075.7,1667.7-3075,1667.7-3074.3,1667.7z"/>
</svg>
