<?xml version="1.0" encoding="utf-8"?>
<!-- Generator: Adobe Illustrator 19.2.1, SVG Export Plug-In . SVG Version: 6.00 Build 0)  -->
<svg version="1.1" id="Layer_1" xmlns="http://www.w3.org/2000/svg" xmlns:xlink="http://www.w3.org/1999/xlink" x="0px" y="0px"
	 viewBox="-3124 1638.6 100 100" enable-background="new -3124 1638.6 100 100" xml:space="preserve">
<g>
	<path d="M-3074,1638.6c-27.6,0-50,22.4-50,50s22.4,50,50,50s50-22.4,50-50S-3046.4,1638.6-3074,1638.6z M-3071,1732.5v-7.9h-6v7.9
		c-21.9-1.5-39.4-19-40.9-40.9h7.9v-6h-7.9c1.5-21.9,19-39.4,40.9-40.9v7.9h6v-7.9c21.9,1.5,39.4,19,40.9,40.9h-7.9v6h7.9
		C-3031.6,1713.4-3049.1,1731-3071,1732.5z"/>
	<path d="M-3095,1698.1c3.1-2.1,6.5-3.3,9.9-4.4c0.5-0.2,1-0.4,1.4-0.5l0.1-0.1c0.7-0.2,1.4-0.5,1.9-0.8c0-0.1,0.1-0.2,0.1-0.3
		c-2.7-4-4.6-10.2-4.6-15.5c0-4.5,1.4-7.8,4.1-9.8c-1.1-0.6-2.5-0.8-4-0.8c-4,0-7.2,1.6-7.2,7.3c0,3.8,1.4,8.4,3.5,11.1
		c0,0.2,0,0.4-0.1,0.6c-0.1,0.6-0.3,1.2-0.9,1.6c-0.6,0.4-1.3,0.6-1.9,0.8c-2.8,0.9-5.6,1.7-8,3.4c-1.3,0.8-2.1,2.5-2.6,3.9
		c-0.5,1.5-0.7,2.9-0.7,4.9h7.5C-3096,1698.6-3095.5,1698.4-3095,1698.1z"/>
	<path d="M-3047.3,1690.8c-2.4-1.6-5.3-2.5-8-3.4c-0.7-0.2-1.3-0.5-1.9-0.8c-0.5-0.3-0.7-1-0.9-1.6c-0.1-0.3-0.1-0.6-0.1-0.9
		c2-2.7,3.3-7.2,3.3-10.8c0-5.7-3.2-7.3-7.2-7.3c-1.5,0-2.9,0.2-4.1,0.8c2.6,2,4,5.3,4,9.8c0,5.2-1.7,11.1-4.4,15.1c0,0,0,0.1,0,0.1
		c0.1,0.3,0.1,0.5,0.2,0.6c0.6,0.3,1.3,0.6,2,0.8l1.2,0.4c3.4,1.1,6.9,2.5,10.1,4.6c0.5,0.3,1,0.4,1.5,1.4h7.6c0-2-0.2-3.4-0.7-4.9
		C-3045.1,1693.2-3046,1691.6-3047.3,1690.8z"/>
	<path d="M-3054.4,1700c-3.3-2.2-7.1-3.3-10.7-4.5c-0.9-0.3-1.8-0.6-2.6-1.1c-0.7-0.4-1-1.3-1.2-2.1c-0.1-0.4-0.1-0.8-0.1-1.2
		c2.7-3.6,4.4-9.6,4.4-14.5c0-7.6-4.3-9.7-9.6-9.7s-9.6,2.1-9.6,9.7c0,5,1.9,11.2,4.7,14.8c0,0.3-0.1,0.6-0.1,0.9
		c-0.2,0.8-0.4,1.6-1.2,2.1c-0.8,0.5-1.7,0.8-2.6,1.1c-3.7,1.2-7.5,2.3-10.7,4.5c-1.7,1.1-2.8,3.3-3.5,5.2c-0.7,2-0.9,4.5-0.9,6.5
		h24h24c0-2-0.2-4.5-0.9-6.5C-3051.5,1703.2-3052.7,1701.1-3054.4,1700z"/>
</g>
</svg>
