<?xml version="1.0" encoding="utf-8"?>
<!-- Generator: Adobe Illustrator 19.2.1, SVG Export Plug-In . SVG Version: 6.00 Build 0)  -->
<svg version="1.1" id="Layer_1" xmlns="http://www.w3.org/2000/svg" xmlns:xlink="http://www.w3.org/1999/xlink" x="0px" y="0px"
	 viewBox="-3118.5 1650.8 89.3 75.5" enable-background="new -3118.5 1650.8 89.3 75.5" xml:space="preserve">
<path d="M-3073.9,1678.6c0.9,0,1.5,0.9,1.5,2c0,1.1-0.7,2.1-1.6,2.1c-0.8,0-1.5-1-1.5-2.1
	C-3075.5,1679.4-3074.8,1678.6-3073.9,1678.6z"/>
<path d="M-3071.3,1682.9c-0.9,0-1.8,0-2.7,0c-0.9,0-1.8,0-2.7,0c-0.9,0-1.3,0.6-1.3,1.5c0,2,0,3.9,0,5.9c0,0.6,0.2,0.9,0.8,0.8
	c0.5,0,0.7-0.2,0.7-0.8c0-1.6,0-3.1,0-4.7c0-0.1,0-0.3,0-0.4c0-0.1,0.1-0.2,0.2-0.2c0.1,0,0.2,0.1,0.2,0.2c0,0.1,0,0.3,0,0.4
	c0,3.3,0,6.7,0,10c0,0.7,0,1.4,0,2.1c0,0.2,0.1,0.5,0.3,0.6c0.7,0.4,1.5,0,1.5-0.8c0-2.3,0-4.5,0-6.8c0-0.2,0-0.3,0-0.6
	c0.1,0,0.2,0,0.3,0c0.1,0,0.2,0,0.3,0c0,0.2,0,0.4,0,0.6c0,2.3,0,4.5,0,6.8c0,0.9,0.7,1.3,1.5,0.8c0.2-0.1,0.3-0.4,0.3-0.6
	c0-0.7,0-1.4,0-2.1c0-3.3,0-6.7,0-10c0-0.1,0-0.3,0-0.4c0-0.1,0.1-0.2,0.2-0.2c0.1,0,0.2,0.1,0.2,0.2c0,0.1,0,0.2,0,0.4
	c0,1.6,0,3.1,0,4.7c0,0.6,0.2,0.8,0.7,0.8c0.5,0,0.7-0.2,0.8-0.8c0-2,0-3.9,0-5.9C-3070,1683.5-3070.4,1682.9-3071.3,1682.9z"/>
<path d="M-3055.1,1688.6c9.4-9.2,15.2-17.8,15.2-23c0-1.6-0.6-2.9-1.6-3.8c-1-0.8-2.5-1.3-4.3-1.3c-4.1,0-10.1,2.1-16.9,5.7
	c-2.5-9.4-6.5-15.4-11.2-15.4s-8.7,6-11.2,15.4c-6.8-3.6-12.8-5.7-16.9-5.7c-1.8,0-3.3,0.4-4.3,1.3c-1.1,0.9-1.6,2.2-1.6,3.8
	c0,5.2,5.8,13.8,15.2,23c-9.4,9.2-15.2,17.8-15.2,23c0,1.6,0.6,2.9,1.6,3.8c1,0.8,2.5,1.3,4.3,1.3c4.1,0,10.1-2.1,16.9-5.7
	c2.5,9.4,6.5,15.4,11.2,15.4s8.7-6,11.2-15.4c6.8,3.6,12.8,5.7,16.9,5.7c1.8,0,3.3-0.4,4.3-1.3c1.1-0.9,1.6-2.2,1.6-3.8
	C-3039.9,1706.4-3045.7,1697.7-3055.1,1688.6z M-3045.8,1662.6c1.4,0,2.4,0.3,3,0.8c0.6,0.5,0.9,1.2,0.9,2.2
	c0,4.6-5.7,12.8-14.6,21.6c-1.2-1.1-2.4-2.2-3.7-3.4c-0.3-5.7-0.9-10.9-2-15.5C-3055.5,1664.7-3049.7,1662.6-3045.8,1662.6z
	 M-3065.5,1695.2c-2.8,2.3-5.6,4.4-8.4,6.4c-2.8-2-5.6-4.1-8.4-6.4c-1.1-0.9-2.2-1.9-3.3-2.8c0-1.2-0.1-2.5-0.1-3.8s0-2.6,0.1-3.8
	c1.1-0.9,2.2-1.9,3.3-2.8c2.8-2.3,5.6-4.4,8.4-6.4c2.8,2,5.6,4.1,8.4,6.4c1.1,0.9,2.2,1.9,3.3,2.8c0,1.2,0.1,2.5,0.1,3.8
	s0,2.6-0.1,3.8C-3063.3,1693.3-3064.4,1694.2-3065.5,1695.2z M-3062.4,1695.2c-0.3,4.7-0.9,8.9-1.7,12.6c-2.6-1.5-5.3-3.2-8.1-5.1
	c2.6-1.9,5.3-3.9,7.9-6C-3063.6,1696.2-3063,1695.7-3062.4,1695.2z M-3075.6,1702.7c-2.7,1.9-5.5,3.6-8.1,5.1
	c-0.8-3.7-1.4-8-1.7-12.6c0.6,0.5,1.2,1,1.9,1.6C-3080.9,1698.9-3078.3,1700.9-3075.6,1702.7z M-3087.6,1690.5
	c-0.7-0.7-1.4-1.3-2.1-2c0.7-0.7,1.4-1.3,2.1-2c0,0.7,0,1.3,0,2S-3087.6,1689.9-3087.6,1690.5z M-3085.4,1682
	c0.3-4.7,0.9-8.9,1.7-12.6c2.6,1.5,5.3,3.2,8.1,5.1c-2.6,1.9-5.3,3.9-7.9,6C-3084.2,1680.9-3084.8,1681.5-3085.4,1682z
	 M-3072.1,1674.4c2.7-1.9,5.5-3.6,8.1-5.1c0.8,3.7,1.4,8,1.7,12.6c-0.6-0.5-1.2-1-1.9-1.6
	C-3066.8,1678.3-3069.5,1676.3-3072.1,1674.4z M-3060.1,1686.6c0.7,0.7,1.4,1.3,2.1,2c-0.7,0.7-1.4,1.3-2.1,2c0-0.7,0-1.3,0-2
	S-3060.1,1687.2-3060.1,1686.6z M-3073.9,1652.9c3.5,0,7.1,5.4,9.4,14.4c-3,1.7-6.2,3.7-9.4,5.9c-3.2-2.2-6.3-4.2-9.3-5.9
	C-3080.9,1658.2-3077.3,1652.9-3073.9,1652.9z M-3105.8,1665.6c0-1,0.3-1.7,0.9-2.2c0.7-0.5,1.7-0.8,3-0.8c3.9,0,9.7,2.1,16.4,5.7
	c-1,4.6-1.7,9.8-2,15.5c-1.3,1.1-2.5,2.2-3.7,3.4C-3100.1,1678.5-3105.8,1670.2-3105.8,1665.6z M-3101.9,1714.6
	c-1.4,0-2.4-0.3-3-0.8c-0.6-0.5-0.9-1.2-0.9-2.2c0-4.6,5.7-12.8,14.6-21.6c1.2,1.1,2.4,2.2,3.7,3.4c0.3,5.7,0.9,10.9,2,15.5
	C-3092.2,1712.4-3098.1,1714.6-3101.9,1714.6z M-3073.9,1724.3c-3.5,0-7.1-5.4-9.4-14.4c3-1.7,6.2-3.7,9.4-5.9
	c3.2,2.2,6.3,4.2,9.4,5.9C-3066.8,1718.9-3070.4,1724.3-3073.9,1724.3z M-3042.8,1713.7c-0.7,0.5-1.7,0.8-3,0.8
	c-3.9,0-9.7-2.1-16.4-5.7c1-4.6,1.7-9.8,2-15.5c1.3-1.1,2.5-2.2,3.7-3.4c8.9,8.7,14.6,16.9,14.6,21.6
	C-3041.9,1712.5-3042.2,1713.3-3042.8,1713.7z"/>
<path d="M-3033.2,1652.2c0.9,0,1.5,0.9,1.5,2c0,1.1-0.7,2.1-1.6,2.1c-0.8,0-1.5-1-1.5-2.1C-3034.8,1653-3034.1,1652.2-3033.2,1652.2
	z"/>
<path d="M-3030.5,1656.7c-0.9,0-1.8,0-2.7,0c-0.9,0-1.8,0-2.7,0c-0.9,0-1.3,0.6-1.3,1.5c0,2,0,3.9,0,5.9c0,0.6,0.2,0.9,0.8,0.8
	c0.5,0,0.7-0.2,0.7-0.8c0-1.6,0-3.1,0-4.7c0-0.1,0-0.3,0-0.4c0-0.1,0.1-0.2,0.2-0.2c0.1,0,0.2,0.1,0.2,0.2c0,0.1,0,0.3,0,0.4
	c0,3.3,0,6.7,0,10c0,0.7,0,1.4,0,2.1c0,0.2,0.1,0.5,0.3,0.6c0.7,0.4,1.5,0,1.5-0.8c0-2.3,0-4.5,0-6.8c0-0.2,0-0.4,0-0.6
	c0.1,0,0.2,0,0.3,0c0.1,0,0.2,0,0.3,0c0,0.2,0,0.4,0,0.6c0,2.3,0,4.5,0,6.8c0,0.8,0.7,1.3,1.5,0.8c0.2-0.1,0.3-0.4,0.3-0.6
	c0-0.7,0-1.4,0-2.1c0-3.3,0-6.7,0-10c0-0.1,0-0.3,0-0.4c0-0.1,0.1-0.2,0.2-0.2c0.1,0,0.2,0.1,0.2,0.2c0,0.1,0,0.2,0,0.4
	c0,1.6,0,3.1,0,4.7c0,0.6,0.2,0.8,0.7,0.8c0.5,0,0.8-0.2,0.8-0.8c0-2,0-3.9,0-5.9C-3029.2,1657.3-3029.6,1656.7-3030.5,1656.7z"/>
<path d="M-3113.7,1706c0.9,0,1.5,0.9,1.5,2c0,1.1-0.7,2.1-1.6,2.1c-0.8,0-1.5-1-1.5-2.1C-3115.2,1706.8-3114.6,1706-3113.7,1706z"/>
<path d="M-3111,1710.3c-0.9,0-1.8,0-2.7,0c-0.9,0-1.8,0-2.7,0c-0.9,0-1.3,0.6-1.3,1.5c0,2,0,3.9,0,5.9c0,0.6,0.2,0.9,0.8,0.8
	c0.5,0,0.7-0.2,0.7-0.8c0-1.6,0-3.1,0-4.7c0-0.1,0-0.3,0-0.4c0-0.1,0.1-0.2,0.2-0.2c0.1,0,0.2,0.1,0.2,0.2c0,0.1,0,0.3,0,0.4
	c0,3.3,0,6.7,0,10c0,0.7,0,1.4,0,2.1c0,0.2,0.1,0.5,0.3,0.6c0.7,0.4,1.5,0,1.5-0.8c0-2.3,0-4.5,0-6.8c0-0.2,0-0.4,0-0.6
	c0.1,0,0.2,0,0.3,0c0.1,0,0.2,0,0.3,0c0,0.2,0,0.4,0,0.6c0,2.3,0,4.5,0,6.8c0,0.8,0.7,1.3,1.5,0.8c0.2-0.1,0.3-0.4,0.3-0.6
	c0-0.7,0-1.4,0-2.1c0-3.3,0-6.7,0-10c0-0.1,0-0.3,0-0.4c0-0.1,0.1-0.2,0.2-0.2c0.1,0,0.2,0.1,0.2,0.2c0,0.1,0,0.2,0,0.4
	c0,1.6,0,3.1,0,4.7c0,0.6,0.2,0.8,0.7,0.8c0.5,0,0.8-0.2,0.8-0.8c0-2,0-3.9,0-5.9C-3109.7,1710.9-3110.1,1710.3-3111,1710.3z"/>
<path d="M-3114.5,1652.4c0.9,0,1.5,0.9,1.5,2c0,1.1-0.7,2.1-1.6,2.1c-0.8,0-1.5-1-1.5-2.1
	C-3116.1,1653.3-3115.4,1652.4-3114.5,1652.4z"/>
<path d="M-3111.8,1656.7c-0.9,0-1.8,0-2.7,0c-0.9,0-1.8,0-2.7,0c-0.9,0-1.3,0.6-1.3,1.5c0,2,0,3.9,0,5.9c0,0.6,0.2,0.9,0.8,0.8
	c0.5,0,0.7-0.2,0.7-0.8c0-1.6,0-3.1,0-4.7c0-0.1,0-0.3,0-0.4c0-0.1,0.1-0.2,0.2-0.2c0.1,0,0.2,0.1,0.2,0.2c0,0.1,0,0.3,0,0.4
	c0,3.3,0,6.7,0,10c0,0.7,0,1.4,0,2.1c0,0.2,0.2,0.5,0.3,0.6c0.7,0.4,1.5,0,1.5-0.8c0-2.3,0-4.5,0-6.8c0-0.2,0-0.4,0-0.6
	c0.1,0,0.2,0,0.3,0c0.1,0,0.2,0,0.3,0c0,0.2,0,0.4,0,0.6c0,2.3,0,4.5,0,6.8c0,0.8,0.7,1.3,1.5,0.8c0.2-0.1,0.3-0.4,0.3-0.6
	c0-0.7,0-1.4,0-2.1c0-3.3,0-6.7,0-10c0-0.1,0-0.3,0-0.4c0-0.1,0.1-0.2,0.2-0.2c0.1,0,0.2,0.1,0.2,0.2c0,0.1,0,0.2,0,0.4
	c0,1.6,0,3.1,0,4.7c0,0.6,0.2,0.8,0.7,0.8c0.5,0,0.8-0.2,0.8-0.8c0-2,0-3.9,0-5.9C-3110.5,1657.3-3110.9,1656.8-3111.8,1656.7z"/>
<path d="M-3033.7,1706c0.9,0,1.5,0.9,1.5,2c0,1.1-0.7,2.1-1.6,2.1c-0.8,0-1.5-1-1.5-2.1C-3035.3,1706.8-3034.6,1706-3033.7,1706z"/>
<path d="M-3031,1710.3c-0.9,0-1.8,0-2.7,0c-0.9,0-1.8,0-2.7,0c-0.9,0-1.3,0.6-1.3,1.5c0,2,0,3.9,0,5.9c0,0.6,0.2,0.9,0.8,0.8
	c0.5,0,0.7-0.2,0.7-0.8c0-1.6,0-3.1,0-4.7c0-0.1,0-0.3,0-0.4c0-0.1,0.1-0.2,0.2-0.2c0.1,0,0.2,0.1,0.2,0.2c0,0.1,0,0.3,0,0.4
	c0,3.3,0,6.7,0,10c0,0.7,0,1.4,0,2.1c0,0.2,0.1,0.5,0.3,0.6c0.7,0.4,1.5,0,1.5-0.8c0-2.3,0-4.5,0-6.8c0-0.2,0-0.4,0-0.6
	c0.1,0,0.2,0,0.3,0c0.1,0,0.2,0,0.3,0c0,0.2,0,0.4,0,0.6c0,2.3,0,4.5,0,6.8c0,0.8,0.7,1.3,1.5,0.8c0.2-0.1,0.3-0.4,0.3-0.6
	c0-0.7,0-1.4,0-2.1c0-3.3,0-6.7,0-10c0-0.1,0-0.3,0-0.4c0-0.1,0.1-0.2,0.2-0.2c0.1,0,0.2,0.1,0.2,0.2c0,0.1,0,0.2,0,0.4
	c0,1.6,0,3.1,0,4.7c0,0.6,0.2,0.8,0.7,0.8c0.5,0,0.8-0.2,0.8-0.8c0-2,0-3.9,0-5.9C-3029.7,1710.9-3030.1,1710.3-3031,1710.3z"/>
</svg>
