<?xml version="1.0" encoding="utf-8"?>
<!-- Generator: Adobe Illustrator 19.2.1, SVG Export Plug-In . SVG Version: 6.00 Build 0)  -->
<svg version="1.1" id="Layer_1" xmlns="http://www.w3.org/2000/svg" xmlns:xlink="http://www.w3.org/1999/xlink" x="0px" y="0px"
	 viewBox="-3124 1638.6 100 125" enable-background="new -3124 1638.6 100 125" xml:space="preserve">
<g>
	<path d="M-3040.9,1664.3c-1.2-1.2-2.8-1.9-4.5-1.9h-2.8c-0.4-3.3-2-6.2-4.9-8.6c-11.3-9.5-21.1-7.1-26.5-1.7
		c-5.2,5.2-5.7,12.3-5.2,14.9c0.2,0.8,1,1.3,1.8,1.1c0.8-0.2,1.3-1,1.1-1.8c-0.4-1.7,0-7.7,4.3-12.1c4.6-4.3,12.9-6.1,22.6,2
		c2.2,1.8,3.4,3.9,3.8,6.3l-17,0.3c-3.1,0.1-7.3,1.8-9.6,4.1l-30,30c-2.5,2.5-2.5,6.7,0,9.2l25.2,25.2c1.2,1.2,2.9,1.9,4.6,1.9
		s3.4-0.7,4.6-1.9l30-30c2.2-2.2,4-6.4,4-9.6l0.4-22.8C-3039,1667.2-3039.7,1665.6-3040.9,1664.3z M-3042.3,1691.7
		c0,2.3-1.5,5.8-3.2,7.5l-30,30c-1.3,1.3-3.6,1.3-4.9,0l-25.1-25.3c-1.4-1.4-1.4-3.6,0-5l30-30c1.7-1.7,5.2-3.1,7.5-3.2l16.9-0.1
		c-0.4,3.4-2,6.7-3.7,9.2c-0.8-0.4-1.7-0.6-2.7-0.6c-3.6,0-6.5,2.9-6.5,6.5c0,3.6,2.9,6.5,6.5,6.5s6.5-2.9,6.5-6.5
		c0-1.5-0.5-2.9-1.4-4.1c2-3,4-7,4.3-11.2h2.7c0.9,0,1.8,0.4,2.4,1s1,1.5,1,2.4L-3042.3,1691.7z M-3054,1680.7
		c0,1.9-1.6,3.5-3.5,3.5s-3.5-1.5-3.5-3.5s1.6-3.5,3.5-3.5c0.3,0,0.6,0.1,0.9,0.1c-1.1,1.4-1.9,2.2-2,2.3c-0.6,0.6-0.5,1.5,0.1,2.1
		c0.3,0.3,0.7,0.4,1,0.4c0.4,0,0.8-0.2,1.1-0.5c0.3-0.3,1.1-1.2,2.1-2.5C-3054.1,1679.7-3054,1680.2-3054,1680.7z"/>
	<path d="M-3067.3,1713l-9.7,9.7c-0.3,0.3-0.8,0.3-1.2,0l-9.8-9.8c-0.6-0.6-1.5-0.6-2.1,0c-0.6,0.6-0.6,1.5,0,2.1l9.8,9.8
		c0.7,0.7,1.7,1.1,2.7,1.1s2-0.4,2.7-1.1l9.7-9.7c0.6-0.6,0.6-1.5,0-2.1C-3065.7,1712.4-3066.7,1712.4-3067.3,1713z"/>
</g>
</svg>
