<?xml version="1.0" encoding="UTF-8"?><!DOCTYPE svg PUBLIC "-//W3C//DTD SVG 1.1//EN" "http://www.w3.org/Graphics/SVG/1.1/DTD/svg11.dtd"><svg xmlns="http://www.w3.org/2000/svg"><symbol id="icon-facebook" viewBox="0 0 10 19">
    <title>
        facebook
    </title>
    <path d="M9.766.157v2.946H8.014c-.64 0-1.071.134-1.295.402-.223.268-.335.67-.335 1.205v2.11h3.27l-.435 3.303H6.384v8.471H2.97v-8.47H.123V6.82H2.97V4.387c0-1.384.387-2.457 1.161-3.22C4.904.404 5.934.023 7.222.023c1.093 0 1.941.045 2.544.134z" fill-rule="evenodd"/>
</symbol><symbol id="icon-finance" viewBox="-3119 1652.9 90 75.7">
    <switch>
        <g>
            <path d="M-3031.5 1663.6h-22.5v-8.2c0-1.4-1.1-2.5-2.5-2.5h-35c-1.4 0-2.5 1.1-2.5 2.5v8.2h-22.5c-1.4 0-2.5 1.1-2.5 2.5v60c0 1.4 1.1 2.5 2.5 2.5h85c1.4 0 2.5-1.1 2.5-2.5v-60c0-1.4-1.1-2.5-2.5-2.5zm-2.5 60h-80v-55h80v55zm-25-65.7v5.7h-30v-5.7h30z"/>
            <path d="M-3108.8 1672.9c-.7 0-1.3.6-1.3 1.3v42.5c0 .7.6 1.3 1.3 1.3h67.6c.7 0 1.3-.6 1.3-1.3v-42.5c0-.7-.6-1.3-1.3-1.3h-67.6zm66.3 42.5h-65v-40h65v40z"/>
            <path d="M-3081.7 1706.2c1.7.7 4.1 1.2 6.3 1.2h.1v-1.3c0-.7.6-1.3 1.3-1.3s1.3.6 1.3 1.3v1.1c5.6-.9 7.4-4.3 7.2-7.1-.3-4.1-4-5.6-7.6-6.5-4.8-1.1-5.8-2.4-5.9-4-.1-.9.3-1.8 1.2-2.5.7-.6 2.1-1.4 4.5-1.6 2.8-.2 4.6.4 5.3.6.6.2 1.4-.1 1.6-.7.2-.6-.1-1.4-.7-1.6-.9-.4-2.9-.9-5.6-.8v1.3c0 .7-.6 1.3-1.3 1.3s-1.3-.6-1.3-1.3v-1.1c-1.7.3-3.2 1-4.3 1.9-1.4 1.2-2.2 2.9-2 4.6.3 4 4.1 5.4 7.8 6.2 4.6 1.1 5.6 2.4 5.7 4.2.2 2.5-2.2 4.3-6.3 4.6-2.6.2-5-.3-6.3-.9-.6-.3-1.4 0-1.7.6s0 1.6.7 1.8z"/>
            <path d="M-3074 1704.8c-.7 0-1.3.6-1.3 1.3v3.7c0 .7.6 1.3 1.3 1.3s1.3-.6 1.3-1.3v-3.7c-.1-.7-.6-1.3-1.3-1.3z"/>
            <path d="M-3074 1685.6c.7 0 1.3-.6 1.3-1.3v-3.7c0-.7-.6-1.3-1.3-1.3s-1.3.6-1.3 1.3v3.7c0 .8.6 1.3 1.3 1.3z"/>
        </g>
    </switch>
</symbol></svg>