<?xml version="1.0" encoding="UTF-8"?><!DOCTYPE svg PUBLIC "-//W3C//DTD SVG 1.1//EN" "http://www.w3.org/Graphics/SVG/1.1/DTD/svg11.dtd"><svg xmlns="http://www.w3.org/2000/svg"><symbol id="icon-biotech" viewBox="-2913 1533.3 79.8 259.2">
    <switch>
        <g>
            <path d="M-2912.6 1537.6c.4-2.7 3-4.6 5.7-4.2 2.7.4 4.6 3 4.2 5.7-.1.8-2.7 20.7 20 33.7 1 .5 1.7 1.4 2.1 2.3-3.6 1.4-6.8 3-9.7 4.7-26.1-16.5-22.5-41.2-22.3-42.2zm47.2 120.3c3.5 1.4 6.7 3 9.7 4.7 22.1-14.1 22.9-34 22.5-40.4v-.1-.4c-.4-8.7-4-24.6-22.5-36.4-3.3 1.9-6.6 3.5-9.7 4.8.4.9 1.1 1.8 2.1 2.3.7.4 1.4.8 2 1.2h-14.7c-2.8 0-5 2.2-5 5s2.2 5 5 5h25.9c1.5 2 2.8 4 3.7 6h-44.6c-2.8 0-5 2.2-5 5s2.2 5 5 5h47c.2 0 .4 0 .6-.1 0 .3.1.7.1 1 .1.6.1 1.2.1 1.7 0 .2.1.3.1.5 0 .5.1 1.2.1 2 0 0-.7-.1-1-.1h-47c-2.8 0-5 2.2-5 5s2.2 5 5 5h46.1c-.7 1.9-1.5 4-2.8 6h-32.3c-2.8 0-5 2.2-5 5s2.2 5 5 5h23.8c-2 1.7-4.4 3.4-7.1 4.9-1 .6-1.7 1.4-2.1 2.4zm-24.9 87.4c2.9-1.7 6.1-3.7 9.7-4.7-.4-1-1.2-1.8-2.2-2.4-19.5-11.1-20.4-27.3-20.2-32.3.1-.3.2-.7.2-1.1 0-.5.1-1.1.1-1.7.8-7.3 4.6-19.3 20-28.1 1-.5 1.7-1.4 2.1-2.3-3.2-1.3-6.5-2.9-9.7-4.8-18.5 11.8-22 27.7-22.5 36.4v.5c-.4 6.5.4 26.4 22.5 40.5zm34.6 5.4c-3.7 2.2-7.5 3.9-11 5.3 1.2.6 2.3 1.2 3.4 1.8 6.8 3.9 11.3 8.4 14.3 12.8h-42c-2.8 0-5 2.2-5 5s2.2 5 5 5h46.7c.7 2.7 1 5.1 1.1 7 .1 2.7 2.3 4.7 5 4.7h.3c2.8-.1 4.9-2.5 4.7-5.2-.4-8.7-4-24.6-22.5-36.4zm22.5-45.7s0-.1 0 0v-.6c-.3-5.4-1.8-13.5-7.3-21.7-4.8-7.2-11.8-13.1-20.8-17.7-.1-.1-.2-.1-.4-.2.1 0 .2.1.4.1-1-.5-2.1-1-3.2-1.5l.3.3h-.3c-2.2-1-4.5-2-6.9-2.9-34.8-12-31.5-37.9-31.4-38.9.1-.8.1-1.5-.2-2.2 1.3-9.4 7.4-24 31.4-32.2 2.4-.8 4.9-1.8 7-2.7 1.1-.5 2.2-1 3.3-1.6 15-7.6 21.9-17.9 25-25.9 4.2-10.5 2.9-19.3 2.8-19.7-.4-2.7-3-4.5-5.7-4.1s-4.6 3-4.2 5.7c0 .3.4 2.8-.1 6.6-.2 0-.4-.1-.6-.1h-47c-2.8 0-5 2.2-5 5s2.2 5 5 5h44.6c-3.8 7.8-11.7 16.6-28.2 22.3-2.4.8-4.7 1.8-6.9 2.7-1.1.5-2.2 1-3.2 1.5-9 4.6-15.9 10.5-20.8 17.7-5.5 8.3-7 16.4-7.3 21.8V1622.5c-.2 3.3 0 9.9 3 17.5 3.1 7.9 10 18.3 25 25.9 1 .5 2.1 1.1 3.2 1.6v.2c2.1 1 4.5 1.7 6.9 2.6 6.2 2.2 11.3 4.6 15.3 7.4h-16.5c-2.8 0-5 2.2-5 5s2.2 5 5 5h26c.3 0 .7 0 1-.1 1 1.7 2.2 3.4 3 5.1h-45c-2.8 0-5 2.2-5 5s2.2 5 5 5h47c.3 0 .6 0 .9-.1-.2.6-.2 1.3-.1 2 0 .2.2 1.8.2 4.2 0 0-.7-.1-1-.1h-47c-2.8 0-5 2.2-5 5s2.2 5 5 5h45.6c-.8 1.9-1.7 4-3.1 6h-31.5c-2.8 0-5 2.2-5 5s2.2 5 5 5h22.2c-4.2 3.2-9.7 6.2-16.6 8.6-.1 0-.1 0-.2.1H-2874.9c-2.3.8-4.5 1.7-6.6 2.6-1.1.5-2.1 1-3.1 1.5h-.1c-9 4.6-15.9 10.5-20.8 17.8-5.5 8.3-7 16.5-7.3 21.9-.1 2.2 1.2 4.3 3.1 5 .5.2 1.1.3 1.6.3h.3c.4 0 .8-.1 1.2-.2 2.1-.5 3.6-2.4 3.8-4.7.4-8.9 5-25.2 29.8-34.4.5-.2 1.1-.4 1.6-.6 4.1-1.4 7.7-3 11-4.7 14.4-7.6 21.1-17.7 24.2-25.4 3-7.5 3.2-14.2 3-17.5z"/>
        </g>
    </switch>
</symbol><symbol id="icon-consumer" viewBox="-3124 1638.6 100 125">
    <path d="M-3040.9 1664.3c-1.2-1.2-2.8-1.9-4.5-1.9h-2.8c-.4-3.3-2-6.2-4.9-8.6-11.3-9.5-21.1-7.1-26.5-1.7-5.2 5.2-5.7 12.3-5.2 14.9.2.8 1 1.3 1.8 1.1.8-.2 1.3-1 1.1-1.8-.4-1.7 0-7.7 4.3-12.1 4.6-4.3 12.9-6.1 22.6 2 2.2 1.8 3.4 3.9 3.8 6.3l-17 .3c-3.1.1-7.3 1.8-9.6 4.1l-30 30c-2.5 2.5-2.5 6.7 0 9.2l25.2 25.2c1.2 1.2 2.9 1.9 4.6 1.9s3.4-.7 4.6-1.9l30-30c2.2-2.2 4-6.4 4-9.6l.4-22.8c0-1.7-.7-3.3-1.9-4.6zm-1.4 27.4c0 2.3-1.5 5.8-3.2 7.5l-30 30c-1.3 1.3-3.6 1.3-4.9 0l-25.1-25.3c-1.4-1.4-1.4-3.6 0-5l30-30c1.7-1.7 5.2-3.1 7.5-3.2l16.9-.1c-.4 3.4-2 6.7-3.7 9.2-.8-.4-1.7-.6-2.7-.6-3.6 0-6.5 2.9-6.5 6.5s2.9 6.5 6.5 6.5 6.5-2.9 6.5-6.5c0-1.5-.5-2.9-1.4-4.1 2-3 4-7 4.3-11.2h2.7c.9 0 1.8.4 2.4 1s1 1.5 1 2.4l-.3 22.9zm-11.7-11c0 1.9-1.6 3.5-3.5 3.5s-3.5-1.5-3.5-3.5 1.6-3.5 3.5-3.5c.3 0 .6.1.9.1-1.1 1.4-1.9 2.2-2 2.3-.6.6-.5 1.5.1 2.1.3.3.7.4 1 .4.4 0 .8-.2 1.1-.5.3-.3 1.1-1.2 2.1-2.5.2.6.3 1.1.3 1.6z"/>
    <path d="M-3067.3 1713l-9.7 9.7c-.3.3-.8.3-1.2 0l-9.8-9.8c-.6-.6-1.5-.6-2.1 0-.6.6-.6 1.5 0 2.1l9.8 9.8c.7.7 1.7 1.1 2.7 1.1s2-.4 2.7-1.1l9.7-9.7c.6-.6.6-1.5 0-2.1-.5-.6-1.5-.6-2.1 0z"/>
</symbol><symbol id="icon-energy" viewBox="-3098 1645.2 48.1 86.7">
    <path d="M-3081.8 1731.9c-.3 0-.6 0-.9-.2-1.4-.5-2.2-1.8-2-3.2l4.7-34.1h-15c-.8 0-1.7-.4-2.2-1-.6-.6-.8-1.5-.7-2.3l4.7-43.2c.2-1.5 1.4-2.7 3-2.7h29.6c1 0 1.9.5 2.4 1.3.6.8.7 1.8.4 2.7l-8.5 23.8 2.5-.1 10.8-.6c1.1-.1 2.1.5 2.7 1.4s.6 2.1.1 3l-14.4 27.6-14.5 26.1c-.6.9-1.7 1.5-2.7 1.5zm-9.9-43.5h15.1c.9 0 1.7.4 2.3 1 .6.7.8 1.5.7 2.4l-3 21.6 6.6-12 11.9-22.8-5.5.3-7 .3c-1 .1-1.9-.4-2.5-1.2-.6-.8-.7-1.8-.4-2.8l8.6-24.1h-22.7l-4.1 37.3z"/>
</symbol><symbol id="icon-facebook" viewBox="0 0 10 19">
    <title>
        facebook
    </title>
    <path d="M9.766.157v2.946H8.014c-.64 0-1.071.134-1.295.402-.223.268-.335.67-.335 1.205v2.11h3.27l-.435 3.303H6.384v8.471H2.97v-8.47H.123V6.82H2.97V4.387c0-1.384.387-2.457 1.161-3.22C4.904.404 5.934.023 7.222.023c1.093 0 1.941.045 2.544.134z" fill-rule="evenodd"/>
</symbol><symbol id="icon-finance" viewBox="-3119 1652.9 90 75.7">
    <switch>
        <g>
            <path d="M-3031.5 1663.6h-22.5v-8.2c0-1.4-1.1-2.5-2.5-2.5h-35c-1.4 0-2.5 1.1-2.5 2.5v8.2h-22.5c-1.4 0-2.5 1.1-2.5 2.5v60c0 1.4 1.1 2.5 2.5 2.5h85c1.4 0 2.5-1.1 2.5-2.5v-60c0-1.4-1.1-2.5-2.5-2.5zm-2.5 60h-80v-55h80v55zm-25-65.7v5.7h-30v-5.7h30z"/>
            <path d="M-3108.8 1672.9c-.7 0-1.3.6-1.3 1.3v42.5c0 .7.6 1.3 1.3 1.3h67.6c.7 0 1.3-.6 1.3-1.3v-42.5c0-.7-.6-1.3-1.3-1.3h-67.6zm66.3 42.5h-65v-40h65v40z"/>
            <path d="M-3081.7 1706.2c1.7.7 4.1 1.2 6.3 1.2h.1v-1.3c0-.7.6-1.3 1.3-1.3s1.3.6 1.3 1.3v1.1c5.6-.9 7.4-4.3 7.2-7.1-.3-4.1-4-5.6-7.6-6.5-4.8-1.1-5.8-2.4-5.9-4-.1-.9.3-1.8 1.2-2.5.7-.6 2.1-1.4 4.5-1.6 2.8-.2 4.6.4 5.3.6.6.2 1.4-.1 1.6-.7.2-.6-.1-1.4-.7-1.6-.9-.4-2.9-.9-5.6-.8v1.3c0 .7-.6 1.3-1.3 1.3s-1.3-.6-1.3-1.3v-1.1c-1.7.3-3.2 1-4.3 1.9-1.4 1.2-2.2 2.9-2 4.6.3 4 4.1 5.4 7.8 6.2 4.6 1.1 5.6 2.4 5.7 4.2.2 2.5-2.2 4.3-6.3 4.6-2.6.2-5-.3-6.3-.9-.6-.3-1.4 0-1.7.6s0 1.6.7 1.8z"/>
            <path d="M-3074 1704.8c-.7 0-1.3.6-1.3 1.3v3.7c0 .7.6 1.3 1.3 1.3s1.3-.6 1.3-1.3v-3.7c-.1-.7-.6-1.3-1.3-1.3z"/>
            <path d="M-3074 1685.6c.7 0 1.3-.6 1.3-1.3v-3.7c0-.7-.6-1.3-1.3-1.3s-1.3.6-1.3 1.3v3.7c0 .8.6 1.3 1.3 1.3z"/>
        </g>
    </switch>
</symbol><symbol id="icon-industrial" viewBox="-3119 1643.6 90 90">
    <path d="M-3074.4 1643.6c-1.2 0-2.5.1-3.8.3-.7.1-1.4.3-2.1.4-2.1.5-3.5 2.3-3.6 4.4v4.5c0 .2-.2.3-.3.3-.1 0-.1.1-.2.1-2.6.8-5 1.7-7.3 3-.1.1-.3.1-.5 0l-2.7-2.7-.4-.4c-1.5-1.5-3.8-1.7-5.6-.6-1.7 1-3.3 2.3-4.8 3.7l-.1.1-.3.3c-.9.9-1.7 1.8-2.4 2.9l-1.2 1.8c-1.1 1.8-.9 4.1.6 5.7l.5.5c1 .9 2.6 2.6 2.6 2.7.1.1 0 0 0 0s.1 0 0 0c.1.1.1.3 0 .5 0 .1 0 .1-.1.2-1.3 2.3-2.3 4.8-3 7.3-.1.2-.2.3-.4.3H-3113.9c-2.1.1-3.9 1.5-4.4 3.6-.5 2-.8 4-.8 6.1v.5c0 1.2.1 2.5.3 3.8.1.7.3 1.4.4 2.1.5 2.1 2.3 3.5 4.4 3.6h4.5c.2 0 .3.2.3.3 0 .1.1.2.1.2.7 2.5 1.7 4.9 2.9 7.1 0 .1.1.1.1.2.1.2.1.3 0 .5l-2.7 2.7-.4.4c-1.5 1.5-1.7 3.8-.6 5.6 1 1.7 2.2 3.3 3.7 4.8l.1.1.1.1.3.3c.9.9 1.8 1.7 2.9 2.5l1.8 1.2c1.8 1.1 4.1.9 5.7-.6l.4-.4 2.7-2.7c.1-.1.3-.1.5 0 2.4 1.3 4.9 2.3 7.5 3.1.2.1.3.2.3.3V1728.7c.1 2.1 1.5 3.9 3.5 4.4 2 .5 4 .8 6.1.8h.5c1.2 0 2.5-.1 3.8-.3.7-.1 1.4-.3 2.1-.4 2.1-.5 3.5-2.3 3.6-4.4v-.7-3.8s0-.1 0 0c0-.2.1-.3.3-.3.1 0 .1-.1.2-.1 2.5-.8 5-1.8 7.3-3 .1-.1.3-.1.5 0l2.7 2.7.4.4c1.5 1.5 3.8 1.7 5.6.6 1.7-1 3.4-2.3 4.9-3.8l.1-.1.3-.3c.9-.9 1.7-1.8 2.4-2.9l1.2-1.8c1.1-1.8.9-4.1-.6-5.7-.1-.1-.2-.3-.4-.5l-2.7-2.7c-.1-.1-.1-.3 0-.5 0-.1.1-.1.1-.2 1.2-2.2 2.2-4.6 2.9-7.1 0-.1.1-.1.1-.2 0-.2.2-.3.3-.3H-3034.2c2.1-.1 3.9-1.5 4.4-3.5.5-2 .8-4 .8-6.1v-.5c0-1.2-.1-2.5-.3-3.8-.1-.7-.3-1.4-.4-2.1-.5-2.1-2.3-3.5-4.4-3.6h-4.5c-.2 0-.3-.2-.3-.3-.7-2.6-1.8-5-3-7.3 0-.1 0-.1-.1-.2s-.1-.3 0-.5l2.7-2.7.4-.4c1.5-1.5 1.7-3.8.6-5.6-1-1.7-2.3-3.4-3.8-4.9-.1-.1-.3-.2-.4-.3-.9-.9-1.8-1.7-2.9-2.4l-1.8-1.2c-1.8-1.1-4.1-.9-5.7.6-.1.1-.3.2-.5.4l-2.7 2.7c-.1.1-.3.1-.5 0-.1 0-.1-.1-.2-.1-2.3-1.2-4.7-2.3-7.3-3-.2 0-.3-.2-.3-.3v-3.8-.6c-.1-2.1-1.5-3.9-3.5-4.4-2-.5-4.1-.8-6.1-.8h-.4v-.2zm.1 3.5h.5c1.8 0 3.5.3 5.3.7.4.1.9.7.9 1.1v4.7c.2 1.6 1.3 2.9 2.8 3.3 2.6.7 5 1.8 7.3 3.1.4.2 1 .3 1.4.1.8 0 1.6-.3 2.3-.8.2-.2.3-.2.3-.3l2.7-2.7c.1-.1.3-.2.4-.3.3-.3 1.1-.3 1.4-.1.5.3 1 .7 1.5 1 .9.7 1.7 1.3 2.5 2.1l.3.3c1.3 1.3 2.3 2.7 3.2 4.2.2.4.2 1.1-.1 1.4l-.3.3-2.7 2.7-.3.3c-.7.9-.9 1.9-.8 2.9 0 .4 0 .7.2 1 1.3 2.2 2.3 4.6 3 7.1.4 1.5 1.7 2.6 3.3 2.8h4.8c.4 0 1 .5 1.1.9.1.6.3 1.2.4 1.8.2 1.1.3 2.2.3 3.3v.5c0 1.8-.3 3.5-.7 5.3-.1.4-.7.9-1.1.9h-4.7c-1 .1-1.8.6-2.4 1.3-.4.2-.6.6-.8 1v.1c-.7 2.6-1.8 5.1-3.1 7.4v.1c-.2.3-.2.6-.2.9-.2 1.1.1 2.2.8 3.1l.3.3 2.7 2.7c.1.1.2.3.3.4.3.3.4 1.1.2 1.4-.3.5-.7 1-1 1.5-.7.9-1.3 1.7-2.1 2.5l-.3.3c-1.3 1.2-2.7 2.3-4.2 3.2-.4.2-1.1.1-1.4-.2l-.3-.3-2.7-2.7-.3-.3c-1.3-1-3-1.1-4.3-.4-2.3 1.2-4.7 2.2-7.3 2.9-.4.1-.8.4-1 .8-.7.6-1.2 1.4-1.3 2.4v4.8c0 .4-.5 1-.9 1.1l-1.8.3c-1.1.2-2.2.3-3.3.3h-.5c-1.8 0-3.5-.3-5.3-.7-.4-.1-.9-.7-.9-1.1v-4.3-.4c-.2-1.6-1.4-2.9-2.8-3.3-2.4-.7-4.6-1.6-6.8-2.8-1.3-.7-3-.6-4.3.4l-.3.3-2.7 2.7c-.1.1-.3.2-.4.3-.3.3-1 .4-1.4.2-.5-.3-1-.7-1.5-1-.9-.7-1.7-1.3-2.5-2.1l-.3-.3c-1.3-1.3-2.3-2.7-3.3-4.2-.2-.4-.1-1.1.2-1.4l.3-.3 2.7-2.7c.1-.1.1-.2.3-.3.8-1 1-2.3.7-3.5 0-.2-.1-.5-.2-.7-1.2-2.2-2.2-4.5-2.9-6.9 0-.1 0 0 0 0 0-.1-.1-.2 0 0-.4-1.4-1.7-2.6-3.3-2.8h-.4-4.3c-.4 0-1-.5-1.1-.9l-.3-1.8c-.2-1.1-.3-2.2-.3-3.3v-.5c0-1.8.3-3.5.7-5.3.1-.4.7-.9 1.1-.9h4.7c1.6-.2 2.8-1.3 3.3-2.8.7-2.5 1.8-5 3.1-7.3.2-.4.3-.8.2-1.2.1-.9-.2-1.9-.8-2.7-.2-.2-.2-.3-.3-.3l-2.7-2.7-.4-.4c-.3-.3-.3-1.1-.1-1.4.3-.5.7-1 1-1.5.7-.9 1.3-1.7 2.1-2.5l.3-.3h.1c1.3-1.3 2.7-2.3 4.2-3.3.4-.2 1.1-.1 1.4.2l.3.3 2.7 2.7.3.3c1.3 1 3 1.1 4.3.4 2.2-1.2 4.5-2.2 7-2.9.2-.1.5-.2.7-.3 1-.6 1.8-1.6 1.9-2.9v-.4-3.8-.5c0-.4.5-1 .9-1.1.6-.1 1.2-.3 1.8-.4.8 0 1.9-.1 3-.1zm-.1 17.1c-.8 0-1.6.1-2.5.2-13.4 1.6-23 13.8-21.4 27.1 1.6 13.4 13.8 23 27.1 21.4h.1l1.7-.3h.1c12.5-2.4 21.1-14.1 19.6-26.8-1.5-12.6-12.3-21.8-24.7-21.6zm.1 3.5c10.6-.2 19.8 7.7 21.1 18.5 1.3 10.9-6 20.9-16.8 23l-1.6.3c-11.5 1.4-21.8-6.8-23.2-18.3-1.4-11.5 6.8-21.9 18.3-23.2.8-.3 1.5-.3 2.2-.3z"/>
</symbol><symbol id="icon-marketing" viewBox="-3124 1638.6 100 100">
    <path d="M-3074 1638.6c-27.6 0-50 22.4-50 50s22.4 50 50 50 50-22.4 50-50-22.4-50-50-50zm3 93.9v-7.9h-6v7.9c-21.9-1.5-39.4-19-40.9-40.9h7.9v-6h-7.9c1.5-21.9 19-39.4 40.9-40.9v7.9h6v-7.9c21.9 1.5 39.4 19 40.9 40.9h-7.9v6h7.9c-1.5 21.8-19 39.4-40.9 40.9z"/>
    <path d="M-3095 1698.1c3.1-2.1 6.5-3.3 9.9-4.4.5-.2 1-.4 1.4-.5l.1-.1c.7-.2 1.4-.5 1.9-.8 0-.1.1-.2.1-.3-2.7-4-4.6-10.2-4.6-15.5 0-4.5 1.4-7.8 4.1-9.8-1.1-.6-2.5-.8-4-.8-4 0-7.2 1.6-7.2 7.3 0 3.8 1.4 8.4 3.5 11.1 0 .2 0 .4-.1.6-.1.6-.3 1.2-.9 1.6-.6.4-1.3.6-1.9.8-2.8.9-5.6 1.7-8 3.4-1.3.8-2.1 2.5-2.6 3.9-.5 1.5-.7 2.9-.7 4.9h7.5c.5-.9 1-1.1 1.5-1.4z"/>
    <path d="M-3047.3 1690.8c-2.4-1.6-5.3-2.5-8-3.4-.7-.2-1.3-.5-1.9-.8-.5-.3-.7-1-.9-1.6-.1-.3-.1-.6-.1-.9 2-2.7 3.3-7.2 3.3-10.8 0-5.7-3.2-7.3-7.2-7.3-1.5 0-2.9.2-4.1.8 2.6 2 4 5.3 4 9.8 0 5.2-1.7 11.1-4.4 15.1v.1c.1.3.1.5.2.6.6.3 1.3.6 2 .8l1.2.4c3.4 1.1 6.9 2.5 10.1 4.6.5.3 1 .4 1.5 1.4h7.6c0-2-.2-3.4-.7-4.9-.4-1.5-1.3-3.1-2.6-3.9z"/>
    <path d="M-3054.4 1700c-3.3-2.2-7.1-3.3-10.7-4.5-.9-.3-1.8-.6-2.6-1.1-.7-.4-1-1.3-1.2-2.1-.1-.4-.1-.8-.1-1.2 2.7-3.6 4.4-9.6 4.4-14.5 0-7.6-4.3-9.7-9.6-9.7s-9.6 2.1-9.6 9.7c0 5 1.9 11.2 4.7 14.8 0 .3-.1.6-.1.9-.2.8-.4 1.6-1.2 2.1-.8.5-1.7.8-2.6 1.1-3.7 1.2-7.5 2.3-10.7 4.5-1.7 1.1-2.8 3.3-3.5 5.2-.7 2-.9 4.5-.9 6.5h48c0-2-.2-4.5-.9-6.5-.5-2-1.7-4.1-3.4-5.2z"/>
</symbol><symbol id="icon-media" viewBox="-3124 1638.6 100 125">
    <path d="M-3074.3 1725.3c-20.1 0-36.4-16.3-36.4-36.4s16.3-36.4 36.4-36.4c20.1 0 36.4 16.3 36.4 36.4s-16.3 36.4-36.4 36.4zm0-68c-17.4 0-31.6 14.2-31.6 31.6s14.2 31.6 31.6 31.6c17.4 0 31.6-14.2 31.6-31.6s-14.2-31.6-31.6-31.6z"/>
    <path d="M-3079.6 1701.3c-2.4 0-4.4-1.9-4.4-4.6V1681c0-2.6 2-4.6 4.4-4.6.9 0 1.9.3 2.8.8l12.7 7.7c1.5.9 2.5 2.4 2.5 3.9s-.9 3-2.4 3.9l-12.8 7.7c-.9.6-2 .9-2.8.9zm.6-19.7v14.5l11.9-7.2-11.9-7.3z"/>
</symbol><symbol id="icon-tecknology" viewBox="-3124 1638.6 100 125">
    <path d="M-3096.7 1708l-20.6-19.8 20.6-19.9 5.3 5.6-15.1 14.4 15.1 14.2-5.3 5.5z"/>
    <path d="M-3080.2 1724.8h-6.8l18-71.4h6.7l-17.9 71.4z"/>
    <path d="M-3051 1708l-5.4-5.7 15.1-14.3-15.1-14.3 5.4-5.5 20.5 19.8-20.5 20z"/>
</symbol><symbol id="icon-utilities" viewBox="-3118.5 1650.8 89.3 75.5">
    <path d="M-3073.9 1678.6c.9 0 1.5.9 1.5 2s-.7 2.1-1.6 2.1c-.8 0-1.5-1-1.5-2.1 0-1.2.7-2 1.6-2z"/>
    <path d="M-3071.3 1682.9h-5.4c-.9 0-1.3.6-1.3 1.5v5.9c0 .6.2.9.8.8.5 0 .7-.2.7-.8v-4.7-.4c0-.1.1-.2.2-.2s.2.1.2.2v12.5c0 .2.1.5.3.6.7.4 1.5 0 1.5-.8v-6.8-.6h.6V1697.5c0 .9.7 1.3 1.5.8.2-.1.3-.4.3-.6v-2.1-10-.4c0-.1.1-.2.2-.2s.2.1.2.2V1690.3c0 .6.2.8.7.8.5 0 .7-.2.8-.8v-5.9c0-.9-.4-1.5-1.3-1.5z"/>
    <path d="M-3055.1 1688.6c9.4-9.2 15.2-17.8 15.2-23 0-1.6-.6-2.9-1.6-3.8-1-.8-2.5-1.3-4.3-1.3-4.1 0-10.1 2.1-16.9 5.7-2.5-9.4-6.5-15.4-11.2-15.4s-8.7 6-11.2 15.4c-6.8-3.6-12.8-5.7-16.9-5.7-1.8 0-3.3.4-4.3 1.3-1.1.9-1.6 2.2-1.6 3.8 0 5.2 5.8 13.8 15.2 23-9.4 9.2-15.2 17.8-15.2 23 0 1.6.6 2.9 1.6 3.8 1 .8 2.5 1.3 4.3 1.3 4.1 0 10.1-2.1 16.9-5.7 2.5 9.4 6.5 15.4 11.2 15.4s8.7-6 11.2-15.4c6.8 3.6 12.8 5.7 16.9 5.7 1.8 0 3.3-.4 4.3-1.3 1.1-.9 1.6-2.2 1.6-3.8 0-5.2-5.8-13.9-15.2-23zm9.3-26c1.4 0 2.4.3 3 .8.6.5.9 1.2.9 2.2 0 4.6-5.7 12.8-14.6 21.6-1.2-1.1-2.4-2.2-3.7-3.4-.3-5.7-.9-10.9-2-15.5 6.7-3.6 12.5-5.7 16.4-5.7zm-19.7 32.6c-2.8 2.3-5.6 4.4-8.4 6.4-2.8-2-5.6-4.1-8.4-6.4-1.1-.9-2.2-1.9-3.3-2.8 0-1.2-.1-2.5-.1-3.8s0-2.6.1-3.8c1.1-.9 2.2-1.9 3.3-2.8 2.8-2.3 5.6-4.4 8.4-6.4 2.8 2 5.6 4.1 8.4 6.4 1.1.9 2.2 1.9 3.3 2.8 0 1.2.1 2.5.1 3.8s0 2.6-.1 3.8c-1.1.9-2.2 1.8-3.3 2.8zm3.1 0c-.3 4.7-.9 8.9-1.7 12.6-2.6-1.5-5.3-3.2-8.1-5.1 2.6-1.9 5.3-3.9 7.9-6 .7-.5 1.3-1 1.9-1.5zm-13.2 7.5c-2.7 1.9-5.5 3.6-8.1 5.1-.8-3.7-1.4-8-1.7-12.6.6.5 1.2 1 1.9 1.6 2.6 2.1 5.2 4.1 7.9 5.9zm-12-12.2c-.7-.7-1.4-1.3-2.1-2 .7-.7 1.4-1.3 2.1-2v4zm2.2-8.5c.3-4.7.9-8.9 1.7-12.6 2.6 1.5 5.3 3.2 8.1 5.1-2.6 1.9-5.3 3.9-7.9 6-.7.4-1.3 1-1.9 1.5zm13.3-7.6c2.7-1.9 5.5-3.6 8.1-5.1.8 3.7 1.4 8 1.7 12.6-.6-.5-1.2-1-1.9-1.6-2.6-2-5.3-4-7.9-5.9zm12 12.2c.7.7 1.4 1.3 2.1 2-.7.7-1.4 1.3-2.1 2v-2-2zm-13.8-33.7c3.5 0 7.1 5.4 9.4 14.4-3 1.7-6.2 3.7-9.4 5.9-3.2-2.2-6.3-4.2-9.3-5.9 2.3-9.1 5.9-14.4 9.3-14.4zm-31.9 12.7c0-1 .3-1.7.9-2.2.7-.5 1.7-.8 3-.8 3.9 0 9.7 2.1 16.4 5.7-1 4.6-1.7 9.8-2 15.5-1.3 1.1-2.5 2.2-3.7 3.4-8.9-8.7-14.6-17-14.6-21.6zm3.9 49c-1.4 0-2.4-.3-3-.8-.6-.5-.9-1.2-.9-2.2 0-4.6 5.7-12.8 14.6-21.6 1.2 1.1 2.4 2.2 3.7 3.4.3 5.7.9 10.9 2 15.5-6.7 3.5-12.6 5.7-16.4 5.7zm28 9.7c-3.5 0-7.1-5.4-9.4-14.4 3-1.7 6.2-3.7 9.4-5.9 3.2 2.2 6.3 4.2 9.4 5.9-2.3 9-5.9 14.4-9.4 14.4zm31.1-10.6c-.7.5-1.7.8-3 .8-3.9 0-9.7-2.1-16.4-5.7 1-4.6 1.7-9.8 2-15.5 1.3-1.1 2.5-2.2 3.7-3.4 8.9 8.7 14.6 16.9 14.6 21.6 0 1-.3 1.8-.9 2.2z"/>
    <path d="M-3033.2 1652.2c.9 0 1.5.9 1.5 2s-.7 2.1-1.6 2.1c-.8 0-1.5-1-1.5-2.1 0-1.2.7-2 1.6-2z"/>
    <path d="M-3030.5 1656.7h-5.4c-.9 0-1.3.6-1.3 1.5v5.9c0 .6.2.9.8.8.5 0 .7-.2.7-.8v-4.7-.4c0-.1.1-.2.2-.2s.2.1.2.2v12.5c0 .2.1.5.3.6.7.4 1.5 0 1.5-.8v-6.8-.6h.6V1671.3c0 .8.7 1.3 1.5.8.2-.1.3-.4.3-.6v-2.1-10-.4c0-.1.1-.2.2-.2s.2.1.2.2V1664.1c0 .6.2.8.7.8.5 0 .8-.2.8-.8v-5.9c0-.9-.4-1.5-1.3-1.5z"/>
    <path d="M-3113.7 1706c.9 0 1.5.9 1.5 2s-.7 2.1-1.6 2.1c-.8 0-1.5-1-1.5-2.1.1-1.2.7-2 1.6-2z"/>
    <path d="M-3111 1710.3h-5.4c-.9 0-1.3.6-1.3 1.5v5.9c0 .6.2.9.8.8.5 0 .7-.2.7-.8v-4.7-.4c0-.1.1-.2.2-.2s.2.1.2.2v12.5c0 .2.1.5.3.6.7.4 1.5 0 1.5-.8v-6.8-.6h.6V1724.9c0 .8.7 1.3 1.5.8.2-.1.3-.4.3-.6v-2.1-10-.4c0-.1.1-.2.2-.2s.2.1.2.2V1717.7c0 .6.2.8.7.8.5 0 .8-.2.8-.8v-5.9c0-.9-.4-1.5-1.3-1.5z"/>
    <path d="M-3114.5 1652.4c.9 0 1.5.9 1.5 2s-.7 2.1-1.6 2.1c-.8 0-1.5-1-1.5-2.1s.7-2 1.6-2z"/>
    <path d="M-3111.8 1656.7h-5.4c-.9 0-1.3.6-1.3 1.5v5.9c0 .6.2.9.8.8.5 0 .7-.2.7-.8v-4.7-.4c0-.1.1-.2.2-.2s.2.1.2.2v12.5c0 .2.2.5.3.6.7.4 1.5 0 1.5-.8v-6.8-.6h.6V1671.3c0 .8.7 1.3 1.5.8.2-.1.3-.4.3-.6v-2.1-10-.4c0-.1.1-.2.2-.2s.2.1.2.2V1664.1c0 .6.2.8.7.8.5 0 .8-.2.8-.8v-5.9c0-.9-.4-1.4-1.3-1.5z"/>
    <path d="M-3033.7 1706c.9 0 1.5.9 1.5 2s-.7 2.1-1.6 2.1c-.8 0-1.5-1-1.5-2.1 0-1.2.7-2 1.6-2z"/>
    <path d="M-3031 1710.3h-5.4c-.9 0-1.3.6-1.3 1.5v5.9c0 .6.2.9.8.8.5 0 .7-.2.7-.8v-4.7-.4c0-.1.1-.2.2-.2s.2.1.2.2v12.5c0 .2.1.5.3.6.7.4 1.5 0 1.5-.8v-6.8-.6h.6V1724.9c0 .8.7 1.3 1.5.8.2-.1.3-.4.3-.6v-2.1-10-.4c0-.1.1-.2.2-.2s.2.1.2.2V1717.7c0 .6.2.8.7.8.5 0 .8-.2.8-.8v-5.9c0-.9-.4-1.5-1.3-1.5z"/>
</symbol></svg>